<mxfile host="Electron" modified="2024-03-06T00:52:09.738Z" agent="Mozilla/5.0 (Macintosh; Intel Mac OS X 10_15_7) AppleWebKit/537.36 (KHTML, like Gecko) draw.io/23.1.5 Chrome/120.0.6099.109 Electron/28.1.0 Safari/537.36" etag="jgj7xIwZ6YYOM6KPBcdG" version="23.1.5" type="device">
  <diagram name="Page-1" id="2GlF9mraAqB2jlaFonDh">
    <mxGraphModel dx="1186" dy="1024" grid="1" gridSize="10" guides="1" tooltips="1" connect="1" arrows="1" fold="1" page="0" pageScale="1" pageWidth="850" pageHeight="1100" background="none" math="0" shadow="0">
      <root>
        <mxCell id="0" />
        <mxCell id="1" parent="0" />
        <mxCell id="4ni2rKvfczxy_Tb37HiB-2" value="Customer" style="rounded=1;arcSize=10;whiteSpace=wrap;html=1;align=center;labelBackgroundColor=none;" parent="1" vertex="1">
          <mxGeometry x="60" y="190" width="100" height="40" as="geometry" />
        </mxCell>
        <mxCell id="AvUZFKKqbvq-ccpJQ7TW-37" value="Account&amp;nbsp;" style="whiteSpace=wrap;html=1;align=center;" parent="1" vertex="1">
          <mxGeometry x="70" y="10" width="100" height="40" as="geometry" />
        </mxCell>
        <mxCell id="f5z989jCZJ44I3sRfrJF-3" value="CustomerAddress" style="shape=rhombus;perimeter=rhombusPerimeter;whiteSpace=wrap;html=1;align=center;" parent="1" vertex="1">
          <mxGeometry x="260" y="185" width="120" height="50" as="geometry" />
        </mxCell>
        <mxCell id="f5z989jCZJ44I3sRfrJF-6" value="" style="fontSize=12;html=1;endArrow=ERoneToMany;rounded=0;exitX=0;exitY=0.5;exitDx=0;exitDy=0;entryX=1;entryY=0.5;entryDx=0;entryDy=0;" parent="1" source="f5z989jCZJ44I3sRfrJF-3" target="4ni2rKvfczxy_Tb37HiB-2" edge="1">
          <mxGeometry width="100" height="100" relative="1" as="geometry">
            <mxPoint x="230" y="400" as="sourcePoint" />
            <mxPoint x="170" y="220" as="targetPoint" />
          </mxGeometry>
        </mxCell>
        <mxCell id="f5z989jCZJ44I3sRfrJF-8" value="" style="fontSize=12;html=1;endArrow=ERzeroToMany;endFill=1;rounded=0;entryX=0.6;entryY=0;entryDx=0;entryDy=0;entryPerimeter=0;" parent="1" edge="1">
          <mxGeometry width="100" height="100" relative="1" as="geometry">
            <mxPoint x="109.5" y="370" as="sourcePoint" />
            <mxPoint x="110" y="420" as="targetPoint" />
            <Array as="points">
              <mxPoint x="110" y="340" />
            </Array>
          </mxGeometry>
        </mxCell>
        <mxCell id="f5z989jCZJ44I3sRfrJF-9" value="" style="fontSize=12;html=1;endArrow=ERoneToMany;rounded=0;entryX=0.5;entryY=1;entryDx=0;entryDy=0;exitX=0.5;exitY=0;exitDx=0;exitDy=0;" parent="1" source="f5z989jCZJ44I3sRfrJF-18" target="4ni2rKvfczxy_Tb37HiB-2" edge="1">
          <mxGeometry width="100" height="100" relative="1" as="geometry">
            <mxPoint x="110" y="310" as="sourcePoint" />
            <mxPoint x="109.5" y="250" as="targetPoint" />
          </mxGeometry>
        </mxCell>
        <mxCell id="f5z989jCZJ44I3sRfrJF-13" value="" style="fontSize=12;html=1;endArrow=ERzeroToMany;endFill=1;rounded=0;entryX=0.415;entryY=0.974;entryDx=0;entryDy=0;entryPerimeter=0;" parent="1" target="AvUZFKKqbvq-ccpJQ7TW-37" edge="1">
          <mxGeometry width="100" height="100" relative="1" as="geometry">
            <mxPoint x="109.52" y="100" as="sourcePoint" />
            <mxPoint x="110.02" y="56" as="targetPoint" />
            <Array as="points" />
          </mxGeometry>
        </mxCell>
        <mxCell id="f5z989jCZJ44I3sRfrJF-16" value="" style="fontSize=12;html=1;endArrow=ERzeroToMany;endFill=1;rounded=0;entryX=0.5;entryY=0;entryDx=0;entryDy=0;" parent="1" target="4ni2rKvfczxy_Tb37HiB-2" edge="1">
          <mxGeometry width="100" height="100" relative="1" as="geometry">
            <mxPoint x="110" y="150" as="sourcePoint" />
            <mxPoint x="110" y="190" as="targetPoint" />
          </mxGeometry>
        </mxCell>
        <mxCell id="f5z989jCZJ44I3sRfrJF-18" value="LoanType" style="shape=associativeEntity;whiteSpace=wrap;html=1;align=center;" parent="1" vertex="1">
          <mxGeometry x="60" y="290" width="100" height="50" as="geometry" />
        </mxCell>
        <mxCell id="f5z989jCZJ44I3sRfrJF-19" value="TransferFund" style="shape=associativeEntity;whiteSpace=wrap;html=1;align=center;" parent="1" vertex="1">
          <mxGeometry x="40" y="100" width="120" height="50" as="geometry" />
        </mxCell>
        <mxCell id="f5z989jCZJ44I3sRfrJF-20" value="Address" style="whiteSpace=wrap;html=1;align=center;" parent="1" vertex="1">
          <mxGeometry x="490" y="190" width="100" height="40" as="geometry" />
        </mxCell>
        <mxCell id="f5z989jCZJ44I3sRfrJF-26" value="" style="fontSize=12;html=1;endArrow=ERmandOne;rounded=0;entryX=1;entryY=0.5;entryDx=0;entryDy=0;exitX=0;exitY=0.5;exitDx=0;exitDy=0;endFill=0;" parent="1" target="AvUZFKKqbvq-ccpJQ7TW-37" edge="1">
          <mxGeometry width="100" height="100" relative="1" as="geometry">
            <mxPoint x="330" y="30" as="sourcePoint" />
            <mxPoint x="180" y="30" as="targetPoint" />
            <Array as="points" />
          </mxGeometry>
        </mxCell>
        <mxCell id="f5z989jCZJ44I3sRfrJF-27" value="" style="endArrow=none;html=1;rounded=0;" parent="1" edge="1">
          <mxGeometry relative="1" as="geometry">
            <mxPoint x="340" y="20" as="sourcePoint" />
            <mxPoint x="340" y="20" as="targetPoint" />
          </mxGeometry>
        </mxCell>
        <mxCell id="f5z989jCZJ44I3sRfrJF-28" value="1" style="resizable=0;html=1;whiteSpace=wrap;align=right;verticalAlign=bottom;" parent="f5z989jCZJ44I3sRfrJF-27" connectable="0" vertex="1">
          <mxGeometry x="1" relative="1" as="geometry" />
        </mxCell>
        <mxCell id="uiO8UzRSjndyR5IG8vDE-6" value="Branch" style="rounded=1;arcSize=0;whiteSpace=wrap;html=1;align=center;" parent="1" vertex="1">
          <mxGeometry x="325" y="300" width="100" height="40" as="geometry" />
        </mxCell>
        <mxCell id="uiO8UzRSjndyR5IG8vDE-9" value="JobAssignmnent" style="shape=associativeEntity;whiteSpace=wrap;html=1;align=center;" parent="1" vertex="1">
          <mxGeometry x="305" y="380" width="140" height="40" as="geometry" />
        </mxCell>
        <mxCell id="uiO8UzRSjndyR5IG8vDE-10" value="" style="fontSize=12;html=1;endArrow=ERzeroToMany;endFill=1;rounded=0;" parent="1" source="uiO8UzRSjndyR5IG8vDE-8" edge="1">
          <mxGeometry width="100" height="100" relative="1" as="geometry">
            <mxPoint x="390" y="440" as="sourcePoint" />
            <mxPoint x="390" y="500" as="targetPoint" />
          </mxGeometry>
        </mxCell>
        <mxCell id="uiO8UzRSjndyR5IG8vDE-12" value="" style="fontSize=12;html=1;endArrow=ERzeroToMany;endFill=1;rounded=0;entryX=0.37;entryY=1.033;entryDx=0;entryDy=0;entryPerimeter=0;exitX=0.407;exitY=-0.062;exitDx=0;exitDy=0;exitPerimeter=0;" parent="1" source="uiO8UzRSjndyR5IG8vDE-9" target="uiO8UzRSjndyR5IG8vDE-6" edge="1">
          <mxGeometry width="100" height="100" relative="1" as="geometry">
            <mxPoint x="370" y="380" as="sourcePoint" />
            <mxPoint x="375" y="340" as="targetPoint" />
          </mxGeometry>
        </mxCell>
        <mxCell id="uiO8UzRSjndyR5IG8vDE-13" value="Service&amp;nbsp;" style="shape=associativeEntity;whiteSpace=wrap;html=1;align=center;" parent="1" vertex="1">
          <mxGeometry x="210" y="260" width="100" height="40" as="geometry" />
        </mxCell>
        <mxCell id="uiO8UzRSjndyR5IG8vDE-14" value="" style="fontSize=12;html=1;endArrow=ERzeroToMany;endFill=1;rounded=0;edgeStyle=orthogonalEdgeStyle;exitX=0;exitY=0.5;exitDx=0;exitDy=0;" parent="1" source="uiO8UzRSjndyR5IG8vDE-13" edge="1">
          <mxGeometry width="100" height="100" relative="1" as="geometry">
            <mxPoint x="190" y="280" as="sourcePoint" />
            <mxPoint x="150" y="230" as="targetPoint" />
          </mxGeometry>
        </mxCell>
        <mxCell id="uiO8UzRSjndyR5IG8vDE-15" value="" style="fontSize=12;html=1;endArrow=ERzeroToMany;endFill=1;rounded=0;edgeStyle=orthogonalEdgeStyle;" parent="1" edge="1">
          <mxGeometry width="100" height="100" relative="1" as="geometry">
            <mxPoint x="310" y="271" as="sourcePoint" />
            <mxPoint x="370" y="300" as="targetPoint" />
            <Array as="points">
              <mxPoint x="365" y="270" />
              <mxPoint x="365" y="271" />
              <mxPoint x="370" y="271" />
            </Array>
          </mxGeometry>
        </mxCell>
        <mxCell id="uiO8UzRSjndyR5IG8vDE-18" value="Atm" style="shape=ext;margin=3;double=1;whiteSpace=wrap;html=1;align=center;" parent="1" vertex="1">
          <mxGeometry x="670" y="310" width="100" height="40" as="geometry" />
        </mxCell>
        <mxCell id="uiO8UzRSjndyR5IG8vDE-43" style="edgeStyle=orthogonalEdgeStyle;rounded=0;orthogonalLoop=1;jettySize=auto;html=1;exitX=0.75;exitY=1;exitDx=0;exitDy=0;" parent="1" source="uiO8UzRSjndyR5IG8vDE-42" edge="1">
          <mxGeometry relative="1" as="geometry">
            <mxPoint x="305" y="140" as="targetPoint" />
          </mxGeometry>
        </mxCell>
        <mxCell id="uiO8UzRSjndyR5IG8vDE-42" value="Saving" style="shape=ext;margin=3;double=1;whiteSpace=wrap;html=1;align=center;" parent="1" vertex="1">
          <mxGeometry x="230" y="110" width="100" height="30" as="geometry" />
        </mxCell>
        <mxCell id="uiO8UzRSjndyR5IG8vDE-44" value="Checking" style="shape=ext;margin=3;double=1;whiteSpace=wrap;html=1;align=center;" parent="1" vertex="1">
          <mxGeometry x="340" y="110" width="80" height="40" as="geometry" />
        </mxCell>
        <mxCell id="uiO8UzRSjndyR5IG8vDE-45" value="Account Type&amp;nbsp;" style="text;html=1;align=center;verticalAlign=middle;resizable=0;points=[];autosize=1;strokeColor=none;fillColor=none;" parent="1" vertex="1">
          <mxGeometry x="225" y="80" width="100" height="30" as="geometry" />
        </mxCell>
        <mxCell id="uiO8UzRSjndyR5IG8vDE-52" value="" style="fontSize=12;html=1;endArrow=ERzeroToOne;endFill=0;rounded=0;entryX=0.638;entryY=-0.075;entryDx=0;entryDy=0;entryPerimeter=0;" parent="1" target="uiO8UzRSjndyR5IG8vDE-44" edge="1">
          <mxGeometry width="100" height="100" relative="1" as="geometry">
            <mxPoint x="391" y="80" as="sourcePoint" />
            <mxPoint x="390" y="90" as="targetPoint" />
            <Array as="points">
              <mxPoint x="391" y="50" />
            </Array>
          </mxGeometry>
        </mxCell>
        <mxCell id="uiO8UzRSjndyR5IG8vDE-55" value="BranchATM" style="shape=rhombus;perimeter=rhombusPerimeter;whiteSpace=wrap;html=1;align=center;" parent="1" vertex="1">
          <mxGeometry x="500" y="310" width="120" height="40" as="geometry" />
        </mxCell>
        <mxCell id="uiO8UzRSjndyR5IG8vDE-56" value="" style="fontSize=12;html=1;endArrow=ERoneToMany;rounded=0;" parent="1" source="uiO8UzRSjndyR5IG8vDE-55" edge="1">
          <mxGeometry width="100" height="100" relative="1" as="geometry">
            <mxPoint x="610" y="400" as="sourcePoint" />
            <mxPoint x="670" y="330" as="targetPoint" />
            <Array as="points" />
          </mxGeometry>
        </mxCell>
        <mxCell id="uiO8UzRSjndyR5IG8vDE-57" value="" style="fontSize=12;html=1;endArrow=ERmandOne;rounded=0;exitX=0;exitY=0.5;exitDx=0;exitDy=0;entryX=1;entryY=0.75;entryDx=0;entryDy=0;" parent="1" source="uiO8UzRSjndyR5IG8vDE-55" target="uiO8UzRSjndyR5IG8vDE-6" edge="1">
          <mxGeometry width="100" height="100" relative="1" as="geometry">
            <mxPoint x="430" y="350" as="sourcePoint" />
            <mxPoint x="430" y="330" as="targetPoint" />
          </mxGeometry>
        </mxCell>
        <mxCell id="uiO8UzRSjndyR5IG8vDE-58" value="TypesofTransaction" style="shape=associativeEntity;whiteSpace=wrap;html=1;align=center;" parent="1" vertex="1">
          <mxGeometry x="40" y="500" width="120" height="50" as="geometry" />
        </mxCell>
        <mxCell id="uiO8UzRSjndyR5IG8vDE-60" value="" style="fontSize=12;html=1;endArrow=ERmandOne;rounded=0;exitX=0.583;exitY=0;exitDx=0;exitDy=0;exitPerimeter=0;" parent="1" source="uiO8UzRSjndyR5IG8vDE-58" edge="1">
          <mxGeometry width="100" height="100" relative="1" as="geometry">
            <mxPoint x="90" y="490" as="sourcePoint" />
            <mxPoint x="110" y="460" as="targetPoint" />
            <Array as="points">
              <mxPoint x="110" y="490" />
              <mxPoint x="110" y="470" />
            </Array>
          </mxGeometry>
        </mxCell>
        <mxCell id="uiO8UzRSjndyR5IG8vDE-61" value="" style="fontSize=12;html=1;endArrow=ERoneToMany;rounded=0;exitX=0.575;exitY=1;exitDx=0;exitDy=0;exitPerimeter=0;" parent="1" source="uiO8UzRSjndyR5IG8vDE-58" edge="1">
          <mxGeometry width="100" height="100" relative="1" as="geometry">
            <mxPoint x="109.5" y="570" as="sourcePoint" />
            <mxPoint x="109" y="600" as="targetPoint" />
            <Array as="points" />
          </mxGeometry>
        </mxCell>
        <mxCell id="uiO8UzRSjndyR5IG8vDE-62" value="Credit Card&amp;nbsp;" style="rounded=1;arcSize=10;whiteSpace=wrap;html=1;align=center;" parent="1" vertex="1">
          <mxGeometry x="400" y="600" width="100" height="40" as="geometry" />
        </mxCell>
        <mxCell id="uiO8UzRSjndyR5IG8vDE-64" value="" style="fontSize=12;html=1;endArrow=ERoneToMany;rounded=0;entryX=1;entryY=0.5;entryDx=0;entryDy=0;exitX=0;exitY=0.5;exitDx=0;exitDy=0;" parent="1" source="uiO8UzRSjndyR5IG8vDE-123" edge="1">
          <mxGeometry width="100" height="100" relative="1" as="geometry">
            <mxPoint x="220" y="620" as="sourcePoint" />
            <mxPoint x="150" y="620" as="targetPoint" />
            <Array as="points" />
          </mxGeometry>
        </mxCell>
        <mxCell id="uiO8UzRSjndyR5IG8vDE-65" value="" style="fontSize=12;html=1;endArrow=ERone;endFill=1;rounded=0;exitX=1;exitY=0.5;exitDx=0;exitDy=0;entryX=0;entryY=0.5;entryDx=0;entryDy=0;" parent="1" target="uiO8UzRSjndyR5IG8vDE-62" edge="1">
          <mxGeometry width="100" height="100" relative="1" as="geometry">
            <mxPoint x="320" y="619" as="sourcePoint" />
            <mxPoint x="370" y="580" as="targetPoint" />
          </mxGeometry>
        </mxCell>
        <mxCell id="uiO8UzRSjndyR5IG8vDE-69" value="" style="fontSize=12;html=1;endArrow=ERoneToMany;rounded=0;exitX=0.5;exitY=1;exitDx=0;exitDy=0;entryX=0.82;entryY=-0.025;entryDx=0;entryDy=0;entryPerimeter=0;" parent="1" source="uiO8UzRSjndyR5IG8vDE-68" edge="1">
          <mxGeometry width="100" height="100" relative="1" as="geometry">
            <mxPoint x="750" y="550" as="sourcePoint" />
            <mxPoint x="132" y="598.9999999999995" as="targetPoint" />
            <Array as="points">
              <mxPoint x="720" y="560" />
              <mxPoint x="132" y="560" />
            </Array>
          </mxGeometry>
        </mxCell>
        <mxCell id="uiO8UzRSjndyR5IG8vDE-71" value="" style="fontSize=12;html=1;endArrow=ERmandOne;rounded=0;entryX=0.5;entryY=1;entryDx=0;entryDy=0;" parent="1" source="uiO8UzRSjndyR5IG8vDE-68" target="uiO8UzRSjndyR5IG8vDE-18" edge="1">
          <mxGeometry width="100" height="100" relative="1" as="geometry">
            <mxPoint x="710" y="400" as="sourcePoint" />
            <mxPoint x="710" y="350" as="targetPoint" />
            <Array as="points">
              <mxPoint x="720" y="370" />
            </Array>
          </mxGeometry>
        </mxCell>
        <mxCell id="uiO8UzRSjndyR5IG8vDE-72" value="" style="fontSize=12;html=1;endArrow=ERmandOne;rounded=0;" parent="1" target="uiO8UzRSjndyR5IG8vDE-68" edge="1">
          <mxGeometry width="100" height="100" relative="1" as="geometry">
            <mxPoint x="710" y="400" as="sourcePoint" />
            <mxPoint x="710" y="350" as="targetPoint" />
          </mxGeometry>
        </mxCell>
        <mxCell id="uiO8UzRSjndyR5IG8vDE-68" value="iInitiateTransaction" style="shape=associativeEntity;whiteSpace=wrap;html=1;align=center;" parent="1" vertex="1">
          <mxGeometry x="655" y="385" width="130" height="50" as="geometry" />
        </mxCell>
        <mxCell id="uiO8UzRSjndyR5IG8vDE-74" value="" style="fontSize=12;html=1;endArrow=ERoneToMany;endFill=0;rounded=0;exitX=0.455;exitY=-0.011;exitDx=0;exitDy=0;exitPerimeter=0;" parent="1" source="uiO8UzRSjndyR5IG8vDE-156" edge="1">
          <mxGeometry width="100" height="100" relative="1" as="geometry">
            <mxPoint x="200" y="340" as="sourcePoint" />
            <mxPoint x="160" y="220" as="targetPoint" />
            <Array as="points">
              <mxPoint x="195" y="220" />
            </Array>
          </mxGeometry>
        </mxCell>
        <mxCell id="uiO8UzRSjndyR5IG8vDE-76" value="" style="fontSize=12;html=1;endArrow=ERoneToMany;endFill=0;rounded=0;exitX=0.556;exitY=1.01;exitDx=0;exitDy=0;entryX=0.59;entryY=0;entryDx=0;entryDy=0;entryPerimeter=0;exitPerimeter=0;" parent="1" source="uiO8UzRSjndyR5IG8vDE-156" target="uiO8UzRSjndyR5IG8vDE-62" edge="1">
          <mxGeometry width="100" height="100" relative="1" as="geometry">
            <mxPoint x="206" y="400" as="sourcePoint" />
            <mxPoint x="450" y="580" as="targetPoint" />
            <Array as="points">
              <mxPoint x="206" y="580" />
              <mxPoint x="340" y="580" />
              <mxPoint x="420" y="580" />
              <mxPoint x="459" y="580" />
            </Array>
          </mxGeometry>
        </mxCell>
        <mxCell id="uiO8UzRSjndyR5IG8vDE-78" value="Bank" style="rounded=1;arcSize=10;whiteSpace=wrap;html=1;align=center;" parent="1" vertex="1">
          <mxGeometry x="520" y="600" width="100" height="40" as="geometry" />
        </mxCell>
        <mxCell id="uiO8UzRSjndyR5IG8vDE-80" value="Operate" style="shape=rhombus;perimeter=rhombusPerimeter;whiteSpace=wrap;html=1;align=center;" parent="1" vertex="1">
          <mxGeometry x="425" y="450" width="120" height="60" as="geometry" />
        </mxCell>
        <mxCell id="uiO8UzRSjndyR5IG8vDE-82" value="" style="fontSize=12;html=1;endArrow=ERmany;rounded=0;exitX=0.5;exitY=0;exitDx=0;exitDy=0;entryX=1;entryY=0.25;entryDx=0;entryDy=0;" parent="1" source="uiO8UzRSjndyR5IG8vDE-80" target="uiO8UzRSjndyR5IG8vDE-6" edge="1">
          <mxGeometry width="100" height="100" relative="1" as="geometry">
            <mxPoint x="480" y="420" as="sourcePoint" />
            <mxPoint x="430" y="310" as="targetPoint" />
            <Array as="points">
              <mxPoint x="485" y="310" />
            </Array>
          </mxGeometry>
        </mxCell>
        <mxCell id="uiO8UzRSjndyR5IG8vDE-84" value="" style="fontSize=12;html=1;endArrow=ERmandOne;endFill=0;rounded=0;exitX=0.5;exitY=1;exitDx=0;exitDy=0;" parent="1" source="uiO8UzRSjndyR5IG8vDE-80" edge="1">
          <mxGeometry width="100" height="100" relative="1" as="geometry">
            <mxPoint x="560" y="510" as="sourcePoint" />
            <mxPoint x="560" y="600" as="targetPoint" />
            <Array as="points">
              <mxPoint x="485" y="530" />
              <mxPoint x="560" y="530" />
            </Array>
          </mxGeometry>
        </mxCell>
        <mxCell id="uiO8UzRSjndyR5IG8vDE-85" value="" style="fontSize=12;html=1;endArrow=ERzeroToMany;endFill=1;rounded=0;exitX=0.412;exitY=1.033;exitDx=0;exitDy=0;exitPerimeter=0;entryX=0.5;entryY=0;entryDx=0;entryDy=0;" parent="1" source="uiO8UzRSjndyR5IG8vDE-9" target="uiO8UzRSjndyR5IG8vDE-8" edge="1">
          <mxGeometry width="100" height="100" relative="1" as="geometry">
            <mxPoint x="380" y="430" as="sourcePoint" />
            <mxPoint x="363" y="460" as="targetPoint" />
          </mxGeometry>
        </mxCell>
        <mxCell id="uiO8UzRSjndyR5IG8vDE-8" value="Employee" style="rounded=1;arcSize=10;whiteSpace=wrap;html=1;align=center;" parent="1" vertex="1">
          <mxGeometry x="310" y="470" width="100" height="40" as="geometry" />
        </mxCell>
        <mxCell id="uiO8UzRSjndyR5IG8vDE-88" value="" style="fontSize=12;html=1;endArrow=ERmany;rounded=0;entryX=0.5;entryY=1;entryDx=0;entryDy=0;" parent="1" source="uiO8UzRSjndyR5IG8vDE-86" target="uiO8UzRSjndyR5IG8vDE-8" edge="1">
          <mxGeometry width="100" height="100" relative="1" as="geometry">
            <mxPoint x="359.5" y="690" as="sourcePoint" />
            <mxPoint x="359.5" y="540" as="targetPoint" />
            <Array as="points" />
          </mxGeometry>
        </mxCell>
        <mxCell id="uiO8UzRSjndyR5IG8vDE-89" value="" style="fontSize=12;html=1;endArrow=ERmany;rounded=0;entryX=0.5;entryY=1;entryDx=0;entryDy=0;" parent="1" target="uiO8UzRSjndyR5IG8vDE-86" edge="1">
          <mxGeometry width="100" height="100" relative="1" as="geometry">
            <mxPoint x="359.5" y="690" as="sourcePoint" />
            <mxPoint x="360" y="510" as="targetPoint" />
            <Array as="points">
              <mxPoint x="359.5" y="580" />
            </Array>
          </mxGeometry>
        </mxCell>
        <mxCell id="uiO8UzRSjndyR5IG8vDE-86" value="Employe" style="shape=rhombus;perimeter=rhombusPerimeter;whiteSpace=wrap;html=1;align=center;" parent="1" vertex="1">
          <mxGeometry x="300" y="670" width="120" height="40" as="geometry" />
        </mxCell>
        <mxCell id="uiO8UzRSjndyR5IG8vDE-91" value="" style="fontSize=12;html=1;endArrow=ERmandOne;rounded=0;exitX=0.5;exitY=1;exitDx=0;exitDy=0;entryX=0.42;entryY=1.05;entryDx=0;entryDy=0;entryPerimeter=0;" parent="1" source="uiO8UzRSjndyR5IG8vDE-86" target="uiO8UzRSjndyR5IG8vDE-78" edge="1">
          <mxGeometry width="100" height="100" relative="1" as="geometry">
            <mxPoint x="320" y="760" as="sourcePoint" />
            <mxPoint x="560" y="650" as="targetPoint" />
            <Array as="points">
              <mxPoint x="360" y="750" />
              <mxPoint x="560" y="750" />
            </Array>
          </mxGeometry>
        </mxCell>
        <mxCell id="uiO8UzRSjndyR5IG8vDE-93" value="Intrest Rate" style="rounded=1;arcSize=10;whiteSpace=wrap;html=1;align=center;" parent="1" vertex="1">
          <mxGeometry x="190" y="-180" width="100" height="40" as="geometry" />
        </mxCell>
        <mxCell id="uiO8UzRSjndyR5IG8vDE-95" value="FinancialRate" style="shape=associativeEntity;whiteSpace=wrap;html=1;align=center;" parent="1" vertex="1">
          <mxGeometry x="180" y="-90" width="110" height="40" as="geometry" />
        </mxCell>
        <mxCell id="uiO8UzRSjndyR5IG8vDE-98" value="" style="fontSize=12;html=1;endArrow=ERmany;rounded=0;entryX=0.5;entryY=0;entryDx=0;entryDy=0;" parent="1" target="AvUZFKKqbvq-ccpJQ7TW-37" edge="1">
          <mxGeometry width="100" height="100" relative="1" as="geometry">
            <mxPoint x="250" y="-30" as="sourcePoint" />
            <mxPoint x="130" y="10" as="targetPoint" />
            <Array as="points">
              <mxPoint x="250" y="-50" />
              <mxPoint x="250" y="-30" />
              <mxPoint x="120" y="-30" />
            </Array>
          </mxGeometry>
        </mxCell>
        <mxCell id="uiO8UzRSjndyR5IG8vDE-102" value="" style="fontSize=12;html=1;endArrow=ERoneToMany;rounded=0;" parent="1" edge="1">
          <mxGeometry width="100" height="100" relative="1" as="geometry">
            <mxPoint x="249" y="-90" as="sourcePoint" />
            <mxPoint x="249" y="-140" as="targetPoint" />
          </mxGeometry>
        </mxCell>
        <mxCell id="uiO8UzRSjndyR5IG8vDE-107" value="Credit Score" style="shape=ext;margin=3;double=1;whiteSpace=wrap;html=1;align=center;" parent="1" vertex="1">
          <mxGeometry x="410" y="-180" width="100" height="40" as="geometry" />
        </mxCell>
        <mxCell id="uiO8UzRSjndyR5IG8vDE-109" value="FinancialStatus" style="shape=rhombus;perimeter=rhombusPerimeter;whiteSpace=wrap;html=1;align=center;" parent="1" vertex="1">
          <mxGeometry x="400" y="-90" width="120" height="50" as="geometry" />
        </mxCell>
        <mxCell id="uiO8UzRSjndyR5IG8vDE-110" value="" style="fontSize=12;html=1;endArrow=ERmandOne;endFill=0;rounded=0;entryX=0.5;entryY=1;entryDx=0;entryDy=0;exitX=0.5;exitY=0;exitDx=0;exitDy=0;" parent="1" source="uiO8UzRSjndyR5IG8vDE-109" target="uiO8UzRSjndyR5IG8vDE-107" edge="1">
          <mxGeometry width="100" height="100" relative="1" as="geometry">
            <mxPoint x="450" y="-90" as="sourcePoint" />
            <mxPoint x="490" y="-130" as="targetPoint" />
          </mxGeometry>
        </mxCell>
        <mxCell id="uiO8UzRSjndyR5IG8vDE-111" value="" style="fontSize=12;html=1;endArrow=ERmandOne;rounded=0;exitX=0.5;exitY=1;exitDx=0;exitDy=0;entryX=0.75;entryY=0;entryDx=0;entryDy=0;" parent="1" source="uiO8UzRSjndyR5IG8vDE-109" target="AvUZFKKqbvq-ccpJQ7TW-37" edge="1">
          <mxGeometry width="100" height="100" relative="1" as="geometry">
            <mxPoint x="460" y="-10" as="sourcePoint" />
            <mxPoint x="150" as="targetPoint" />
            <Array as="points">
              <mxPoint x="460" y="-10" />
              <mxPoint x="145" y="-10" />
            </Array>
          </mxGeometry>
        </mxCell>
        <mxCell id="uiO8UzRSjndyR5IG8vDE-117" value="Manager" style="rounded=1;arcSize=10;whiteSpace=wrap;html=1;align=center;" parent="1" vertex="1">
          <mxGeometry x="630" y="140" width="100" height="40" as="geometry" />
        </mxCell>
        <mxCell id="uiO8UzRSjndyR5IG8vDE-118" value="Manage" style="shape=rhombus;perimeter=rhombusPerimeter;whiteSpace=wrap;html=1;align=center;" parent="1" vertex="1">
          <mxGeometry x="630" y="220" width="100" height="40" as="geometry" />
        </mxCell>
        <mxCell id="uiO8UzRSjndyR5IG8vDE-120" value="" style="fontSize=12;html=1;endArrow=ERmandOne;endFill=0;rounded=0;entryX=0.893;entryY=-0.014;entryDx=0;entryDy=0;edgeStyle=orthogonalEdgeStyle;entryPerimeter=0;exitX=0.5;exitY=1;exitDx=0;exitDy=0;" parent="1" source="uiO8UzRSjndyR5IG8vDE-118" target="uiO8UzRSjndyR5IG8vDE-6" edge="1">
          <mxGeometry width="100" height="100" relative="1" as="geometry">
            <mxPoint x="690" y="280" as="sourcePoint" />
            <mxPoint x="679.52" y="270" as="targetPoint" />
          </mxGeometry>
        </mxCell>
        <mxCell id="uiO8UzRSjndyR5IG8vDE-122" value="" style="fontSize=12;html=1;endArrow=ERoneToMany;rounded=0;endFill=0;" parent="1" edge="1">
          <mxGeometry width="100" height="100" relative="1" as="geometry">
            <mxPoint x="679.52" y="220" as="sourcePoint" />
            <mxPoint x="680" y="180" as="targetPoint" />
          </mxGeometry>
        </mxCell>
        <mxCell id="uiO8UzRSjndyR5IG8vDE-123" value="Record" style="shape=rhombus;perimeter=rhombusPerimeter;whiteSpace=wrap;html=1;align=center;" parent="1" vertex="1">
          <mxGeometry x="225" y="590" width="120" height="60" as="geometry" />
        </mxCell>
        <mxCell id="uiO8UzRSjndyR5IG8vDE-124" value="Status" style="shape=associativeEntity;whiteSpace=wrap;html=1;align=center;" parent="1" vertex="1">
          <mxGeometry x="40" y="-90" width="95" height="40" as="geometry" />
        </mxCell>
        <mxCell id="uiO8UzRSjndyR5IG8vDE-125" value="Account Status" style="whiteSpace=wrap;html=1;align=center;" parent="1" vertex="1">
          <mxGeometry x="40" y="-170" width="100" height="40" as="geometry" />
        </mxCell>
        <mxCell id="uiO8UzRSjndyR5IG8vDE-127" value="" style="fontSize=12;html=1;endArrow=ERmany;rounded=0;entryX=0.5;entryY=1;entryDx=0;entryDy=0;" parent="1" target="uiO8UzRSjndyR5IG8vDE-125" edge="1">
          <mxGeometry width="100" height="100" relative="1" as="geometry">
            <mxPoint x="88" y="-90" as="sourcePoint" />
            <mxPoint x="90" y="-130" as="targetPoint" />
          </mxGeometry>
        </mxCell>
        <mxCell id="uiO8UzRSjndyR5IG8vDE-128" value="" style="fontSize=12;html=1;endArrow=ERmany;rounded=0;entryX=0.177;entryY=-0.05;entryDx=0;entryDy=0;entryPerimeter=0;" parent="1" target="AvUZFKKqbvq-ccpJQ7TW-37" edge="1">
          <mxGeometry width="100" height="100" relative="1" as="geometry">
            <mxPoint x="87.02000000000001" y="-50" as="sourcePoint" />
            <mxPoint x="90" y="10" as="targetPoint" />
          </mxGeometry>
        </mxCell>
        <mxCell id="uiO8UzRSjndyR5IG8vDE-129" value="Transaction" style="rounded=1;arcSize=10;whiteSpace=wrap;html=1;align=center;" parent="1" vertex="1">
          <mxGeometry x="50" y="600" width="100" height="40" as="geometry" />
        </mxCell>
        <mxCell id="uiO8UzRSjndyR5IG8vDE-131" value="Loan" style="rounded=1;arcSize=10;whiteSpace=wrap;html=1;align=center;" parent="1" vertex="1">
          <mxGeometry x="60" y="420" width="100" height="40" as="geometry" />
        </mxCell>
        <mxCell id="uiO8UzRSjndyR5IG8vDE-132" value="TransactionHistory" style="shape=rhombus;perimeter=rhombusPerimeter;whiteSpace=wrap;html=1;align=center;" parent="1" vertex="1">
          <mxGeometry x="500" y="110" width="120" height="60" as="geometry" />
        </mxCell>
        <mxCell id="uiO8UzRSjndyR5IG8vDE-135" value="" style="fontSize=12;html=1;endArrow=ERoneToMany;rounded=0;entryX=0.61;entryY=1.057;entryDx=0;entryDy=0;entryPerimeter=0;exitX=0.5;exitY=1;exitDx=0;exitDy=0;" parent="1" source="uiO8UzRSjndyR5IG8vDE-132" target="uiO8UzRSjndyR5IG8vDE-129" edge="1">
          <mxGeometry width="100" height="100" relative="1" as="geometry">
            <mxPoint x="560" y="150" as="sourcePoint" />
            <mxPoint x="110" y="650" as="targetPoint" />
            <Array as="points">
              <mxPoint x="560" y="170" />
              <mxPoint x="620" y="170" />
              <mxPoint x="620" y="540" />
              <mxPoint x="360" y="540" />
              <mxPoint x="190" y="540" />
              <mxPoint x="190" y="640" />
              <mxPoint x="190" y="680" />
              <mxPoint x="111" y="680" />
            </Array>
          </mxGeometry>
        </mxCell>
        <mxCell id="uiO8UzRSjndyR5IG8vDE-137" value="" style="fontSize=12;html=1;endArrow=ERmandOne;endFill=0;rounded=0;exitX=0;exitY=0.5;exitDx=0;exitDy=0;entryX=1;entryY=0.75;entryDx=0;entryDy=0;" parent="1" source="uiO8UzRSjndyR5IG8vDE-132" target="uiO8UzRSjndyR5IG8vDE-44" edge="1">
          <mxGeometry width="100" height="100" relative="1" as="geometry">
            <mxPoint x="500" y="130" as="sourcePoint" />
            <mxPoint x="430" y="140" as="targetPoint" />
          </mxGeometry>
        </mxCell>
        <mxCell id="uiO8UzRSjndyR5IG8vDE-138" value="Check" style="rounded=1;arcSize=10;whiteSpace=wrap;html=1;align=center;" parent="1" vertex="1">
          <mxGeometry x="37.5" y="870" width="100" height="40" as="geometry" />
        </mxCell>
        <mxCell id="uiO8UzRSjndyR5IG8vDE-140" value="CheckPayment" style="shape=rhombus;perimeter=rhombusPerimeter;whiteSpace=wrap;html=1;align=center;" parent="1" vertex="1">
          <mxGeometry x="205" y="860" width="120" height="60" as="geometry" />
        </mxCell>
        <mxCell id="uiO8UzRSjndyR5IG8vDE-141" value="Payment" style="rounded=1;arcSize=10;whiteSpace=wrap;html=1;align=center;" parent="1" vertex="1">
          <mxGeometry x="390" y="870" width="100" height="40" as="geometry" />
        </mxCell>
        <mxCell id="uiO8UzRSjndyR5IG8vDE-143" value="" style="fontSize=12;html=1;endArrow=ERmandOne;rounded=0;exitX=1;exitY=0.5;exitDx=0;exitDy=0;" parent="1" source="uiO8UzRSjndyR5IG8vDE-140" target="uiO8UzRSjndyR5IG8vDE-141" edge="1">
          <mxGeometry width="100" height="100" relative="1" as="geometry">
            <mxPoint x="110" y="900" as="sourcePoint" />
            <mxPoint x="100" y="960" as="targetPoint" />
          </mxGeometry>
        </mxCell>
        <mxCell id="uiO8UzRSjndyR5IG8vDE-146" value="" style="fontSize=12;html=1;endArrow=ERmandOne;rounded=0;exitX=0;exitY=0.5;exitDx=0;exitDy=0;entryX=1;entryY=0.5;entryDx=0;entryDy=0;" parent="1" source="uiO8UzRSjndyR5IG8vDE-140" target="uiO8UzRSjndyR5IG8vDE-138" edge="1">
          <mxGeometry width="100" height="100" relative="1" as="geometry">
            <mxPoint x="190" y="815" as="sourcePoint" />
            <mxPoint x="140" y="805" as="targetPoint" />
          </mxGeometry>
        </mxCell>
        <mxCell id="uiO8UzRSjndyR5IG8vDE-147" value="" style="fontSize=12;html=1;endArrow=ERmany;rounded=0;entryX=0;entryY=0.5;entryDx=0;entryDy=0;exitX=0.5;exitY=1;exitDx=0;exitDy=0;" parent="1" source="uiO8UzRSjndyR5IG8vDE-148" target="uiO8UzRSjndyR5IG8vDE-131" edge="1">
          <mxGeometry width="100" height="100" relative="1" as="geometry">
            <mxPoint x="-30" y="400" as="sourcePoint" />
            <mxPoint x="50" y="430" as="targetPoint" />
            <Array as="points">
              <mxPoint x="-30" y="440" />
            </Array>
          </mxGeometry>
        </mxCell>
        <mxCell id="uiO8UzRSjndyR5IG8vDE-148" value="AccountLoan" style="shape=associativeEntity;whiteSpace=wrap;html=1;align=center;" parent="1" vertex="1">
          <mxGeometry x="-90" y="220" width="120" height="50" as="geometry" />
        </mxCell>
        <mxCell id="uiO8UzRSjndyR5IG8vDE-150" value="" style="fontSize=12;html=1;endArrow=ERmany;rounded=0;exitX=0.5;exitY=0;exitDx=0;exitDy=0;entryX=0;entryY=0.5;entryDx=0;entryDy=0;" parent="1" source="uiO8UzRSjndyR5IG8vDE-148" target="AvUZFKKqbvq-ccpJQ7TW-37" edge="1">
          <mxGeometry width="100" height="100" relative="1" as="geometry">
            <mxPoint x="-30" y="210" as="sourcePoint" />
            <mxPoint x="10" y="30" as="targetPoint" />
            <Array as="points">
              <mxPoint x="-30" y="30" />
            </Array>
          </mxGeometry>
        </mxCell>
        <mxCell id="uiO8UzRSjndyR5IG8vDE-153" value="ViewBalance" style="shape=rhombus;perimeter=rhombusPerimeter;whiteSpace=wrap;html=1;align=center;" parent="1" vertex="1">
          <mxGeometry x="290" y="-230" width="120" height="60" as="geometry" />
        </mxCell>
        <mxCell id="uiO8UzRSjndyR5IG8vDE-154" value="" style="fontSize=12;html=1;endArrow=ERmandOne;endFill=0;rounded=0;entryX=0;entryY=0.5;entryDx=0;entryDy=0;" parent="1" source="uiO8UzRSjndyR5IG8vDE-153" target="4ni2rKvfczxy_Tb37HiB-2" edge="1">
          <mxGeometry width="100" height="100" relative="1" as="geometry">
            <mxPoint x="-10" y="-210" as="sourcePoint" />
            <mxPoint x="50" y="210" as="targetPoint" />
            <Array as="points">
              <mxPoint x="-40" y="-200" />
              <mxPoint x="-40" y="210" />
            </Array>
          </mxGeometry>
        </mxCell>
        <mxCell id="uiO8UzRSjndyR5IG8vDE-155" value="" style="fontSize=12;html=1;endArrow=ERmandOne;endFill=0;rounded=0;entryX=0.5;entryY=1;entryDx=0;entryDy=0;entryPerimeter=0;exitX=0.5;exitY=1;exitDx=0;exitDy=0;" parent="1" source="uiO8UzRSjndyR5IG8vDE-153" target="uiO8UzRSjndyR5IG8vDE-45" edge="1">
          <mxGeometry width="100" height="100" relative="1" as="geometry">
            <mxPoint x="350" y="-100" as="sourcePoint" />
            <mxPoint x="400" as="targetPoint" />
            <Array as="points">
              <mxPoint x="350" y="-30" />
              <mxPoint x="275" y="-30" />
            </Array>
          </mxGeometry>
        </mxCell>
        <mxCell id="uiO8UzRSjndyR5IG8vDE-158" value="Debit Card" style="rounded=1;arcSize=10;whiteSpace=wrap;html=1;align=center;" parent="1" vertex="1">
          <mxGeometry x="170" y="710" width="100" height="40" as="geometry" />
        </mxCell>
        <mxCell id="uiO8UzRSjndyR5IG8vDE-160" value="" style="fontSize=12;html=1;endArrow=ERoneToMany;rounded=0;endFill=0;entryX=0.5;entryY=0;entryDx=0;entryDy=0;exitX=0.699;exitY=0.986;exitDx=0;exitDy=0;exitPerimeter=0;" parent="1" source="uiO8UzRSjndyR5IG8vDE-156" target="uiO8UzRSjndyR5IG8vDE-158" edge="1">
          <mxGeometry width="100" height="100" relative="1" as="geometry">
            <mxPoint x="223" y="391" as="sourcePoint" />
            <mxPoint x="219.01999999999978" y="700.8" as="targetPoint" />
          </mxGeometry>
        </mxCell>
        <mxCell id="uiO8UzRSjndyR5IG8vDE-161" value="" style="fontSize=12;html=1;endArrow=ERoneToMany;rounded=0;exitX=0;exitY=0.5;exitDx=0;exitDy=0;endFill=0;" parent="1" source="uiO8UzRSjndyR5IG8vDE-156" edge="1">
          <mxGeometry width="100" height="100" relative="1" as="geometry">
            <mxPoint x="60" y="370" as="sourcePoint" />
            <mxPoint x="70" y="230" as="targetPoint" />
            <Array as="points">
              <mxPoint x="40" y="370" />
              <mxPoint x="40" y="270" />
              <mxPoint x="70" y="270" />
            </Array>
          </mxGeometry>
        </mxCell>
        <mxCell id="uiO8UzRSjndyR5IG8vDE-162" value="" style="fontSize=12;html=1;endArrow=ERmany;rounded=0;entryX=0.1;entryY=-0.086;entryDx=0;entryDy=0;entryPerimeter=0;exitX=0.334;exitY=1.01;exitDx=0;exitDy=0;exitPerimeter=0;" parent="1" source="uiO8UzRSjndyR5IG8vDE-156" target="uiO8UzRSjndyR5IG8vDE-158" edge="1">
          <mxGeometry width="100" height="100" relative="1" as="geometry">
            <mxPoint x="180" y="470" as="sourcePoint" />
            <mxPoint x="180" y="700" as="targetPoint" />
            <Array as="points">
              <mxPoint x="180" y="670" />
            </Array>
          </mxGeometry>
        </mxCell>
        <mxCell id="uiO8UzRSjndyR5IG8vDE-163" value="" style="fontSize=12;html=1;endArrow=ERoneToMany;rounded=0;endFill=0;entryX=0.5;entryY=0;entryDx=0;entryDy=0;exitX=0.683;exitY=1.105;exitDx=0;exitDy=0;exitPerimeter=0;" parent="1" target="uiO8UzRSjndyR5IG8vDE-156" edge="1">
          <mxGeometry width="100" height="100" relative="1" as="geometry">
            <mxPoint x="220.98000000000027" y="384.99999999999983" as="sourcePoint" />
            <mxPoint x="219.01999999999978" y="700.8" as="targetPoint" />
          </mxGeometry>
        </mxCell>
        <mxCell id="uiO8UzRSjndyR5IG8vDE-156" value="Created" style="shape=associativeEntity;whiteSpace=wrap;html=1;align=center;" parent="1" vertex="1">
          <mxGeometry x="140" y="350" width="120" height="40" as="geometry" />
        </mxCell>
        <mxCell id="uiO8UzRSjndyR5IG8vDE-164" value="MortgagePayment" style="shape=associativeEntity;whiteSpace=wrap;html=1;align=center;" parent="1" vertex="1">
          <mxGeometry x="380" y="950" width="130" height="40" as="geometry" />
        </mxCell>
        <mxCell id="uiO8UzRSjndyR5IG8vDE-166" value="Mortgage" style="rounded=1;arcSize=10;whiteSpace=wrap;html=1;align=center;" parent="1" vertex="1">
          <mxGeometry x="400" y="1040" width="100" height="40" as="geometry" />
        </mxCell>
        <mxCell id="uiO8UzRSjndyR5IG8vDE-167" value="" style="fontSize=12;html=1;endArrow=ERoneToMany;rounded=0;exitX=0.418;exitY=-0.038;exitDx=0;exitDy=0;exitPerimeter=0;" parent="1" source="uiO8UzRSjndyR5IG8vDE-164" edge="1">
          <mxGeometry width="100" height="100" relative="1" as="geometry">
            <mxPoint x="400" y="920" as="sourcePoint" />
            <mxPoint x="435" y="910" as="targetPoint" />
          </mxGeometry>
        </mxCell>
        <mxCell id="uiO8UzRSjndyR5IG8vDE-170" value="" style="fontSize=12;html=1;endArrow=ERmany;rounded=0;entryX=0.391;entryY=-0.11;entryDx=0;entryDy=0;entryPerimeter=0;exitX=0.455;exitY=1.081;exitDx=0;exitDy=0;exitPerimeter=0;" parent="1" source="uiO8UzRSjndyR5IG8vDE-164" target="uiO8UzRSjndyR5IG8vDE-166" edge="1">
          <mxGeometry width="100" height="100" relative="1" as="geometry">
            <mxPoint x="340" y="1030" as="sourcePoint" />
            <mxPoint x="400" y="960" as="targetPoint" />
            <Array as="points">
              <mxPoint x="439" y="1000" />
            </Array>
          </mxGeometry>
        </mxCell>
        <mxCell id="uiO8UzRSjndyR5IG8vDE-171" value="" style="fontSize=12;html=1;endArrow=ERmandOne;rounded=0;entryX=0;entryY=0.25;entryDx=0;entryDy=0;exitX=0.5;exitY=0;exitDx=0;exitDy=0;" parent="1" source="uiO8UzRSjndyR5IG8vDE-153" target="4ni2rKvfczxy_Tb37HiB-2" edge="1">
          <mxGeometry width="100" height="100" relative="1" as="geometry">
            <mxPoint x="10" y="-210" as="sourcePoint" />
            <mxPoint x="50" y="200" as="targetPoint" />
            <Array as="points">
              <mxPoint x="-10" y="-230" />
              <mxPoint x="-10" y="200" />
            </Array>
          </mxGeometry>
        </mxCell>
        <mxCell id="uiO8UzRSjndyR5IG8vDE-172" value="" style="fontSize=12;html=1;endArrow=ERmandOne;rounded=0;exitX=1;exitY=0.5;exitDx=0;exitDy=0;entryX=1;entryY=0.25;entryDx=0;entryDy=0;" parent="1" source="uiO8UzRSjndyR5IG8vDE-153" target="uiO8UzRSjndyR5IG8vDE-44" edge="1">
          <mxGeometry width="100" height="100" relative="1" as="geometry">
            <mxPoint x="530" y="-170" as="sourcePoint" />
            <mxPoint x="440" y="120" as="targetPoint" />
            <Array as="points">
              <mxPoint x="530" y="-200" />
              <mxPoint x="530" y="-10" />
              <mxPoint x="530" y="60" />
              <mxPoint x="530" y="120" />
            </Array>
          </mxGeometry>
        </mxCell>
        <mxCell id="uiO8UzRSjndyR5IG8vDE-175" value="DebitPayment" style="shape=associativeEntity;whiteSpace=wrap;html=1;align=center;" parent="1" vertex="1">
          <mxGeometry x="270" y="780" width="150" height="50" as="geometry" />
        </mxCell>
        <mxCell id="uiO8UzRSjndyR5IG8vDE-176" value="" style="fontSize=12;html=1;endArrow=ERoneToMany;rounded=0;exitX=0.5;exitY=1;exitDx=0;exitDy=0;entryX=0.5;entryY=0;entryDx=0;entryDy=0;" parent="1" source="uiO8UzRSjndyR5IG8vDE-175" target="uiO8UzRSjndyR5IG8vDE-141" edge="1">
          <mxGeometry width="100" height="100" relative="1" as="geometry">
            <mxPoint x="300" y="800" as="sourcePoint" />
            <mxPoint x="440" y="860" as="targetPoint" />
            <Array as="points">
              <mxPoint x="440" y="840" />
            </Array>
          </mxGeometry>
        </mxCell>
        <mxCell id="uiO8UzRSjndyR5IG8vDE-179" value="" style="fontSize=12;html=1;endArrow=ERoneToMany;rounded=0;exitX=0.5;exitY=0;exitDx=0;exitDy=0;entryX=0.443;entryY=1.01;entryDx=0;entryDy=0;entryPerimeter=0;" parent="1" source="uiO8UzRSjndyR5IG8vDE-175" target="uiO8UzRSjndyR5IG8vDE-158" edge="1">
          <mxGeometry width="100" height="100" relative="1" as="geometry">
            <mxPoint x="300" y="800" as="sourcePoint" />
            <mxPoint x="220" y="760" as="targetPoint" />
            <Array as="points">
              <mxPoint x="214" y="770" />
            </Array>
          </mxGeometry>
        </mxCell>
        <mxCell id="uiO8UzRSjndyR5IG8vDE-182" value="" style="fontSize=12;html=1;endArrow=ERzeroToOne;rounded=0;exitX=0.327;exitY=1.033;exitDx=0;exitDy=0;exitPerimeter=0;endFill=0;" parent="1" edge="1">
          <mxGeometry width="100" height="100" relative="1" as="geometry">
            <mxPoint x="372.41499999999996" y="51.319999999999936" as="sourcePoint" />
            <mxPoint x="319.52" y="110" as="targetPoint" />
            <Array as="points">
              <mxPoint x="320" y="70" />
            </Array>
          </mxGeometry>
        </mxCell>
        <mxCell id="uiO8UzRSjndyR5IG8vDE-183" value="Relationship" style="shape=rhombus;perimeter=rhombusPerimeter;whiteSpace=wrap;html=1;align=center;" parent="1" vertex="1">
          <mxGeometry x="325" width="120" height="60" as="geometry" />
        </mxCell>
        <mxCell id="uiO8UzRSjndyR5IG8vDE-184" value="Joint" style="shape=ext;margin=3;double=1;whiteSpace=wrap;html=1;align=center;" parent="1" vertex="1">
          <mxGeometry x="545" y="50" width="100" height="40" as="geometry" />
        </mxCell>
        <mxCell id="uiO8UzRSjndyR5IG8vDE-185" value="" style="fontSize=12;html=1;endArrow=ERzeroToOne;rounded=0;endFill=0;entryX=0;entryY=0.5;entryDx=0;entryDy=0;" parent="1" target="uiO8UzRSjndyR5IG8vDE-184" edge="1">
          <mxGeometry width="100" height="100" relative="1" as="geometry">
            <mxPoint x="390" y="70" as="sourcePoint" />
            <mxPoint x="400" y="-30" as="targetPoint" />
          </mxGeometry>
        </mxCell>
        <mxCell id="uiO8UzRSjndyR5IG8vDE-186" value="" style="endArrow=none;dashed=1;html=1;rounded=0;" parent="1" edge="1">
          <mxGeometry width="50" height="50" relative="1" as="geometry">
            <mxPoint x="210" y="180" as="sourcePoint" />
            <mxPoint x="210" y="180" as="targetPoint" />
            <Array as="points">
              <mxPoint x="350" y="180" />
              <mxPoint x="465" y="180" />
              <mxPoint x="465" y="60" />
              <mxPoint x="355.24" y="60" />
              <mxPoint x="210" y="60" />
            </Array>
          </mxGeometry>
        </mxCell>
        <mxCell id="uiO8UzRSjndyR5IG8vDE-187" value="" style="fontSize=12;html=1;endArrow=ERoneToMany;rounded=0;exitX=0.196;exitY=-0.074;exitDx=0;exitDy=0;exitPerimeter=0;" parent="1" edge="1">
          <mxGeometry width="100" height="100" relative="1" as="geometry">
            <mxPoint x="229.60000000000014" y="259.9999999999995" as="sourcePoint" />
            <mxPoint x="160" y="202.96" as="targetPoint" />
            <Array as="points">
              <mxPoint x="230" y="202.96" />
            </Array>
          </mxGeometry>
        </mxCell>
        <mxCell id="uiO8UzRSjndyR5IG8vDE-190" value="" style="fontSize=12;html=1;endArrow=ERoneToMany;rounded=0;entryX=0;entryY=0.5;entryDx=0;entryDy=0;exitX=0.605;exitY=1.069;exitDx=0;exitDy=0;exitPerimeter=0;" parent="1" source="uiO8UzRSjndyR5IG8vDE-13" target="uiO8UzRSjndyR5IG8vDE-8" edge="1">
          <mxGeometry width="100" height="100" relative="1" as="geometry">
            <mxPoint x="260" y="470" as="sourcePoint" />
            <mxPoint x="270" y="420" as="targetPoint" />
            <Array as="points">
              <mxPoint x="270" y="490" />
            </Array>
          </mxGeometry>
        </mxCell>
        <mxCell id="uiO8UzRSjndyR5IG8vDE-191" value="CreateSaving" style="shape=associativeEntity;whiteSpace=wrap;html=1;align=center;" parent="1" vertex="1">
          <mxGeometry x="570" y="-30" width="140" height="60" as="geometry" />
        </mxCell>
        <mxCell id="uiO8UzRSjndyR5IG8vDE-192" value="" style="fontSize=12;html=1;endArrow=ERoneToMany;rounded=0;entryX=0.75;entryY=0;entryDx=0;entryDy=0;exitX=-0.01;exitY=0.879;exitDx=0;exitDy=0;exitPerimeter=0;" parent="1" source="uiO8UzRSjndyR5IG8vDE-191" target="4ni2rKvfczxy_Tb37HiB-2" edge="1">
          <mxGeometry width="100" height="100" relative="1" as="geometry">
            <mxPoint x="510" as="sourcePoint" />
            <mxPoint x="150" y="180" as="targetPoint" />
            <Array as="points">
              <mxPoint x="490" y="20" />
              <mxPoint x="490" y="170" />
              <mxPoint x="135" y="170" />
            </Array>
          </mxGeometry>
        </mxCell>
        <mxCell id="uiO8UzRSjndyR5IG8vDE-193" value="" style="fontSize=12;html=1;endArrow=ERoneToMany;rounded=0;exitX=0.5;exitY=0;exitDx=0;exitDy=0;" parent="1" source="uiO8UzRSjndyR5IG8vDE-191" edge="1">
          <mxGeometry width="100" height="100" relative="1" as="geometry">
            <mxPoint x="640" y="-40" as="sourcePoint" />
            <mxPoint x="310" y="110" as="targetPoint" />
            <Array as="points">
              <mxPoint x="640" y="-50" />
              <mxPoint x="550" y="-50" />
              <mxPoint x="550" y="-20" />
              <mxPoint x="460" y="-20" />
              <mxPoint x="370" y="-20" />
              <mxPoint x="310" y="-20" />
            </Array>
          </mxGeometry>
        </mxCell>
        <mxCell id="uiO8UzRSjndyR5IG8vDE-194" value="" style="fontSize=12;html=1;endArrow=ERzeroToOne;rounded=0;endFill=0;exitX=1;exitY=0.5;exitDx=0;exitDy=0;entryX=0;entryY=0.5;entryDx=0;entryDy=0;" parent="1" source="f5z989jCZJ44I3sRfrJF-3" target="f5z989jCZJ44I3sRfrJF-20" edge="1">
          <mxGeometry width="100" height="100" relative="1" as="geometry">
            <mxPoint x="370" y="285" as="sourcePoint" />
            <mxPoint x="470" y="185" as="targetPoint" />
          </mxGeometry>
        </mxCell>
        <mxCell id="uiO8UzRSjndyR5IG8vDE-199" value="atm_id" style="ellipse;whiteSpace=wrap;html=1;align=center;" parent="1" vertex="1">
          <mxGeometry x="730" y="195" width="100" height="40" as="geometry" />
        </mxCell>
        <mxCell id="uiO8UzRSjndyR5IG8vDE-200" value="" style="endArrow=none;html=1;rounded=0;exitX=0.25;exitY=0;exitDx=0;exitDy=0;entryX=0;entryY=1;entryDx=0;entryDy=0;" parent="1" source="uiO8UzRSjndyR5IG8vDE-18" target="uiO8UzRSjndyR5IG8vDE-199" edge="1">
          <mxGeometry relative="1" as="geometry">
            <mxPoint x="580" y="290" as="sourcePoint" />
            <mxPoint x="690" y="290" as="targetPoint" />
          </mxGeometry>
        </mxCell>
        <mxCell id="uiO8UzRSjndyR5IG8vDE-202" value="location" style="ellipse;whiteSpace=wrap;html=1;align=center;" parent="1" vertex="1">
          <mxGeometry x="730" y="250" width="100" height="40" as="geometry" />
        </mxCell>
        <mxCell id="uiO8UzRSjndyR5IG8vDE-203" value="" style="endArrow=none;html=1;rounded=0;" parent="1" edge="1">
          <mxGeometry relative="1" as="geometry">
            <mxPoint x="735" y="310" as="sourcePoint" />
            <mxPoint x="770" y="290" as="targetPoint" />
          </mxGeometry>
        </mxCell>
      </root>
    </mxGraphModel>
  </diagram>
</mxfile>
